<svg xmlns="http://www.w3.org/2000/svg" width="512" height="512" viewBox="0 0 512 512">
<g>
<path d="M 421.55 474.08 C421.89,474.64 356.41,475.00 255.07,475.00 L 88.01 475.00 L 88.01 37.00 L 255.07 37.00 C356.41,37.00 421.89,37.36 421.55,37.92 C421.24,38.43 421.66,39.52 422.49,40.35 C423.83,41.68 424.00,66.40 424.00,256.00 C424.00,445.60 423.83,470.32 422.49,471.65 C421.66,472.48 421.24,473.57 421.55,474.08 ZM 99.00 225.26 C100.98,226.00 105.80,225.45 109.32,224.09 C111.25,223.34 133.18,223.00 179.10,223.00 C236.10,223.00 246.59,223.22 249.62,224.49 C253.86,226.26 256.94,225.12 257.11,221.71 C257.32,217.62 256.82,214.50 255.91,214.17 C255.41,213.98 254.92,211.28 254.83,208.17 L 254.66 202.50 L 253.34 214.50 L 253.17 207.19 C253.06,202.53 253.36,200.11 254.00,200.50 C254.55,200.84 255.00,200.22 255.00,199.12 C255.00,198.02 255.42,196.86 255.94,196.54 C256.45,196.22 256.86,193.16 256.85,189.73 C256.83,186.30 257.03,182.26 257.27,180.75 C257.76,177.79 255.33,174.03 253.37,174.70 C251.13,175.47 249.00,171.92 249.00,167.43 C249.00,161.61 246.50,159.00 240.93,159.00 C235.67,159.00 232.72,157.45 233.48,155.07 C233.91,153.72 233.23,152.93 230.81,151.92 C227.00,150.34 216.26,150.34 214.69,151.91 C214.09,152.51 211.89,153.00 209.80,153.00 C206.69,153.00 206.00,152.64 206.00,151.04 C206.00,148.39 209.55,145.25 212.55,145.25 C216.42,145.25 217.66,143.53 217.40,138.53 C217.19,134.70 217.44,134.00 219.01,134.00 C220.70,134.00 222.71,130.65 222.18,128.71 C222.07,128.27 222.80,128.36 223.80,128.90 C227.25,130.74 231.70,128.76 232.66,124.95 C233.46,121.78 233.39,117.08 232.51,114.33 C231.89,112.42 232.14,112.19 234.54,112.45 C238.16,112.85 240.82,110.50 240.23,107.41 C239.97,106.08 239.34,105.00 238.82,105.00 C238.29,105.00 238.14,104.13 238.48,103.08 C238.93,101.64 238.38,100.81 236.29,99.81 C233.83,98.63 233.49,97.90 233.38,93.60 C233.30,89.96 232.79,88.46 231.38,87.65 C229.52,86.59 229.03,86.45 225.92,86.15 C224.62,86.03 224.35,84.67 224.42,78.75 C224.48,73.64 224.13,71.46 223.25,71.38 C222.56,71.31 221.11,71.19 220.02,71.12 C218.73,71.04 217.81,70.03 217.38,68.25 C216.50,64.57 215.15,63.00 212.86,63.00 C211.80,63.00 210.45,61.89 209.82,60.50 C209.19,59.12 208.30,58.00 207.84,58.00 C207.38,58.00 207.11,57.44 207.25,56.75 C207.43,55.86 205.56,55.47 200.67,55.40 C193.37,55.29 190.58,56.65 191.70,59.78 C192.14,61.02 191.74,60.87 190.29,59.25 C187.77,56.45 184.35,56.32 183.50,59.00 C182.94,60.77 181.99,61.00 175.33,61.00 C169.03,61.00 167.88,60.75 168.36,59.50 C168.68,58.67 168.43,58.00 167.80,58.00 C167.18,58.00 167.01,57.66 167.42,57.25 C167.84,56.84 164.65,56.05 160.34,55.50 C153.43,54.61 152.35,54.69 151.25,56.17 C150.56,57.09 150.11,58.87 150.25,60.12 C150.46,62.03 150.00,62.42 147.40,62.55 C145.69,62.63 143.81,63.00 143.23,63.36 C142.65,63.72 141.02,63.58 139.62,63.04 C135.99,61.67 134.02,64.62 134.99,69.95 C135.38,72.10 135.35,74.43 134.92,75.13 C134.49,75.82 134.56,77.17 135.07,78.13 C136.30,80.43 136.26,84.00 135.00,84.00 C134.45,84.00 134.00,84.72 134.00,85.59 C134.00,86.92 132.91,87.13 127.42,86.84 C118.80,86.40 118.05,87.34 118.67,97.79 C118.92,102.03 119.55,105.65 120.07,105.84 C120.59,106.02 120.76,106.58 120.45,107.07 C120.15,107.57 120.59,107.71 121.45,107.38 C123.57,106.57 123.39,107.61 121.00,110.00 C119.49,111.51 119.00,113.33 119.00,117.42 C119.00,120.40 118.78,123.44 118.51,124.17 C117.70,126.36 119.56,128.21 122.96,128.61 C124.72,128.81 126.53,129.21 126.99,129.50 C127.46,129.78 128.96,129.59 130.34,129.06 C133.75,127.76 134.69,129.15 135.55,136.74 C136.24,142.82 136.33,142.97 139.63,143.59 C141.48,143.94 143.00,144.55 143.00,144.96 C143.00,145.36 144.01,146.23 145.25,146.88 C146.49,147.53 146.80,147.87 145.94,147.63 C144.71,147.30 144.46,147.88 144.74,150.35 C145.05,152.97 144.92,153.20 144.00,151.75 C142.76,149.78 140.46,149.30 141.63,151.25 C142.14,152.10 141.84,152.06 140.69,151.13 C139.76,150.37 139.00,150.19 139.00,150.71 C139.00,151.61 132.51,151.66 127.00,150.79 C123.13,150.19 120.16,151.97 118.95,155.65 C118.34,157.49 117.32,159.05 116.67,159.11 C116.03,159.16 114.60,159.28 113.50,159.36 C112.16,159.45 111.13,160.65 110.37,163.00 C109.50,165.69 108.68,166.50 106.87,166.51 C102.83,166.54 102.22,167.58 102.72,173.53 C103.36,181.07 102.53,184.03 99.88,183.74 C98.59,183.59 96.99,184.55 95.71,186.23 C94.01,188.47 93.84,189.37 94.75,191.23 C97.35,196.54 99.34,218.79 97.42,221.02 C95.99,222.67 96.63,224.37 99.00,225.26 ZM 240.25 206.61 C238.84,207.68 227.04,207.94 179.87,207.97 C177.47,207.97 175.15,207.97 172.93,207.97 C128.48,208.00 120.04,208.01 119.03,205.27 C118.79,204.63 118.96,203.83 119.17,202.85 C119.22,202.64 119.26,202.43 119.31,202.20 C119.62,200.66 119.49,198.79 119.03,198.04 C118.50,197.20 118.72,196.14 119.59,195.27 C120.42,194.44 121.00,191.84 121.00,188.99 C121.00,186.31 121.46,183.84 122.02,183.49 C122.58,183.14 122.79,182.47 122.49,181.98 C122.19,181.50 122.85,181.28 123.95,181.49 C125.06,181.70 125.92,181.57 125.86,181.19 C125.59,179.26 126.10,177.95 126.93,178.46 C127.44,178.77 128.11,178.63 128.41,178.15 C128.71,177.66 130.28,176.99 131.90,176.67 C133.76,176.30 135.10,175.26 135.55,173.84 C136.64,170.40 138.43,169.11 141.61,169.47 C143.20,169.64 145.30,169.37 146.27,168.85 C147.42,168.24 149.92,168.34 153.41,169.16 C158.11,170.25 158.75,170.69 158.53,172.69 C158.39,173.95 158.78,175.39 159.39,175.89 C160.00,176.39 166.57,176.67 174.00,176.53 C181.43,176.38 188.39,176.59 189.49,176.99 C190.58,177.39 192.16,177.39 192.99,176.98 C193.82,176.57 195.85,175.83 197.50,175.34 C199.15,174.85 200.43,174.01 200.35,173.48 C200.06,171.62 202.01,169.12 203.75,169.12 C204.71,169.12 207.18,168.90 209.24,168.64 C211.29,168.37 213.18,168.48 213.43,168.88 C213.67,169.28 215.70,169.53 217.94,169.43 C220.17,169.34 222.00,169.68 222.00,170.19 C222.00,170.70 222.37,170.89 222.82,170.61 C223.27,170.33 223.44,171.43 223.21,173.04 C222.74,176.22 223.64,176.94 228.59,177.32 L 231.49 177.54 L 231.16 184.66 C230.80,192.45 231.28,193.25 236.46,193.56 C238.13,193.65 240.06,193.79 240.75,193.87 C242.83,194.09 242.40,204.98 240.25,206.61 ZM 201.04 321.02 C202.81,322.12 205.90,321.40 208.14,319.38 C209.21,318.40 210.00,318.17 210.00,318.83 C210.00,319.67 235.32,320.07 307.25,320.33 C360.74,320.53 404.95,320.81 405.50,320.95 C406.05,321.09 408.23,320.97 410.34,320.67 C415.82,319.90 418.83,315.23 415.80,312.20 C415.14,311.54 415.04,311.00 415.58,311.00 C416.63,311.00 416.21,303.05 415.14,302.92 C414.79,302.88 413.71,302.70 412.75,302.51 C411.79,302.33 411.00,302.47 411.00,302.84 C411.00,303.20 365.78,303.37 310.50,303.22 C229.41,303.00 210.00,303.19 209.98,304.22 C209.97,305.16 209.73,305.12 209.07,304.08 C207.96,302.33 200.40,301.78 199.19,303.36 C197.47,305.59 198.95,319.73 201.04,321.02 ZM 200.42 360.62 C203.28,362.30 206.70,361.99 208.61,359.88 C210.25,358.07 213.71,358.00 306.11,358.00 C387.33,358.00 402.02,358.21 402.70,359.40 C403.75,361.24 405.63,361.51 410.47,360.51 C416.62,359.25 417.38,357.97 416.58,350.22 C416.21,346.55 415.49,343.30 414.99,342.99 C413.35,341.98 399.89,342.71 398.73,343.87 C397.32,345.28 210.93,345.50 209.45,344.09 C208.13,342.83 201.48,342.08 199.95,343.03 C199.12,343.54 198.66,346.51 198.60,351.65 C198.51,358.39 198.77,359.66 200.42,360.62 ZM 199.02 279.54 C200.03,281.43 200.87,281.74 203.86,281.37 C205.85,281.12 207.91,280.49 208.44,279.96 C209.04,279.36 244.44,279.00 302.95,279.01 C380.69,279.02 397.29,279.26 401.16,280.44 C403.72,281.21 405.99,281.68 406.19,281.47 C406.40,281.26 408.32,280.90 410.46,280.67 C415.85,280.07 417.02,278.06 416.53,270.25 C416.31,266.70 415.94,263.60 415.70,263.37 C414.72,262.39 411.00,262.19 411.00,263.12 C411.00,263.67 410.52,263.82 409.93,263.45 C408.39,262.50 403.00,262.25 403.00,263.13 C403.00,263.53 402.12,264.14 401.05,264.48 C399.87,264.86 399.32,265.67 399.66,266.55 C400.14,267.81 387.74,268.00 305.11,268.00 C223.35,268.00 210.00,267.80 210.00,266.57 C210.00,262.86 202.25,260.19 200.34,263.25 C198.41,266.34 197.56,276.82 199.02,279.54 ZM 267.81 192.93 C270.85,193.76 274.00,193.21 274.00,191.87 C274.00,191.35 300.65,190.99 337.50,191.01 C375.02,191.04 401.00,191.43 401.00,191.97 C401.00,192.74 402.64,192.78 407.30,192.11 C407.74,192.05 408.57,190.65 409.15,189.00 C409.88,186.91 410.85,186.00 412.36,186.00 C415.12,186.00 417.21,182.68 416.42,179.55 C415.98,177.79 414.59,176.71 411.37,175.61 C407.02,174.13 404.00,174.33 404.00,176.09 C404.00,176.59 374.28,177.09 336.08,177.24 C270.58,177.49 268.13,177.43 267.00,175.62 C265.95,173.94 265.67,173.90 264.30,175.28 C262.30,177.27 261.54,186.47 263.07,190.17 C263.73,191.76 264.46,192.87 264.70,192.64 C264.93,192.40 266.34,192.53 267.81,192.93 ZM 263.29 151.75 C264.60,153.46 270.19,153.33 272.56,151.53 C274.22,150.28 283.53,150.06 336.17,150.03 C370.08,150.01 397.98,150.38 398.17,150.84 C398.75,152.32 405.72,152.92 407.47,151.64 C408.38,150.98 409.16,148.96 409.21,147.16 C409.27,145.36 409.58,144.24 409.90,144.69 C410.23,145.14 411.43,145.63 412.57,145.78 C416.83,146.36 417.70,136.87 413.46,136.20 C412.38,136.03 410.44,135.37 409.15,134.73 C407.20,133.75 406.59,133.85 405.54,135.28 C404.37,136.88 399.54,137.00 337.47,137.00 C277.09,137.00 270.48,136.84 268.85,135.37 C267.19,133.86 266.86,133.86 264.59,135.35 C262.34,136.82 262.13,137.59 262.23,143.73 C262.28,147.46 262.76,151.06 263.29,151.75 ZM 287.35 456.20 C289.38,458.24 293.02,458.13 295.79,455.95 C298.17,454.08 300.21,454.00 347.48,454.00 C394.37,454.00 396.77,454.09 398.39,455.88 C399.74,457.37 401.06,457.66 404.80,457.28 C407.38,457.02 411.00,456.85 412.84,456.91 C417.45,457.05 418.05,456.43 416.77,452.78 C416.09,450.81 416.03,449.49 416.63,449.29 C417.16,449.11 417.41,447.38 417.18,445.43 C417.03,444.14 417.01,443.10 416.59,442.27 C414.88,438.94 406.68,438.93 357.54,438.90 C355.12,438.90 352.61,438.89 350.00,438.89 C301.45,438.85 287.55,439.11 286.95,440.08 C285.92,441.74 286.88,444.00 288.61,444.00 C289.60,444.00 289.42,444.58 288.00,446.00 C285.68,448.32 285.31,454.16 287.35,456.20 ZM 104.60 457.27 C105.76,458.42 111.92,457.38 113.75,455.73 C115.50,454.14 119.65,454.00 164.50,454.00 C209.11,454.00 213.51,454.15 215.23,455.70 C217.65,457.89 222.00,457.98 224.30,455.89 C225.77,454.56 226.01,453.17 225.63,448.38 C225.14,442.31 224.26,439.01 223.14,438.99 C202.51,438.60 102.46,439.25 100.06,439.79 C96.12,440.67 95.37,442.46 95.45,450.90 L 95.50 456.30 L 99.77 456.51 C102.12,456.62 104.30,456.96 104.60,457.27 ZM 263.10 111.08 C263.65,112.50 264.87,113.70 265.80,113.75 C269.13,113.92 273.03,111.74 273.62,109.37 L 274.22 107.00 L 336.67 107.00 C371.02,107.00 398.88,107.38 398.59,107.85 C397.54,109.56 400.62,112.12 403.83,112.21 C407.86,112.33 409.10,111.17 409.21,107.19 C409.30,104.21 410.72,103.42 412.22,105.50 C413.57,107.36 416.52,104.42 416.29,101.44 C416.08,98.66 414.29,96.70 412.80,97.62 C412.36,97.90 412.00,97.71 412.00,97.22 C412.00,96.73 410.86,95.80 409.47,95.17 C407.40,94.22 406.83,94.29 406.36,95.51 C405.86,96.81 397.19,97.00 337.86,97.00 C278.41,97.00 269.87,96.81 269.36,95.50 C268.56,93.40 264.27,93.63 263.09,95.83 C261.81,98.22 261.81,107.79 263.10,111.08 ZM 180.52 143.25 C177.64,146.52 176.36,146.71 175.50,144.00 C175.09,142.72 173.99,142.00 172.43,142.00 C170.70,142.00 170.00,141.45 170.00,140.07 C170.00,137.70 167.18,134.72 165.53,135.35 C163.62,136.08 161.92,134.54 161.70,131.88 C161.44,128.69 159.02,126.18 156.77,126.77 C153.51,127.62 152.16,125.27 152.14,118.69 C152.13,115.29 151.81,111.03 151.44,109.24 C151.00,107.11 151.23,105.43 152.10,104.38 C152.83,103.51 153.89,101.87 154.46,100.76 C155.77,98.20 157.46,98.34 157.61,101.02 C157.68,102.14 158.05,103.39 158.45,103.78 C159.48,104.81 174.00,105.66 174.00,104.69 C174.00,104.25 174.36,104.10 174.80,104.38 C175.24,104.65 176.21,104.49 176.96,104.02 C177.79,103.51 178.84,103.70 179.64,104.50 C181.02,105.88 185.00,105.42 185.00,103.88 C185.00,103.40 187.93,103.00 191.50,103.00 C195.48,103.00 198.00,103.42 198.00,104.08 C198.00,104.67 199.46,105.07 201.25,104.98 C207.79,104.62 208.00,104.74 207.98,108.75 C207.98,110.81 207.48,113.18 206.89,114.00 C205.99,115.26 205.90,115.21 206.39,113.71 C206.86,112.26 206.46,111.98 204.23,112.21 C200.14,112.64 199.14,114.83 198.67,124.40 C198.43,129.18 197.99,133.35 197.68,133.65 C197.18,134.15 194.99,134.51 187.00,135.41 C183.05,135.85 183.00,135.88 182.97,138.25 C182.95,139.49 181.85,141.74 180.52,143.25 ZM 287.38 416.80 C287.71,417.33 289.79,417.71 292.01,417.63 C295.40,417.52 296.25,417.05 297.27,414.75 L 298.49 412.00 L 348.24 412.00 C398.48,412.00 398.64,412.01 398.11,415.27 C397.89,416.65 402.73,417.89 406.16,417.33 C407.99,417.03 410.85,416.70 412.50,416.59 C416.13,416.35 415.99,416.51 416.95,411.26 C417.49,408.34 417.34,406.48 416.48,405.30 C415.79,404.36 415.43,403.04 415.69,402.37 C416.42,400.47 412.63,399.00 407.03,399.00 C403.43,399.00 401.77,399.44 401.36,400.50 C400.86,401.81 394.11,402.00 348.96,402.00 C297.33,402.00 297.13,401.99 296.47,399.92 C295.91,398.15 295.21,397.91 291.79,398.30 C287.63,398.78 285.36,400.76 287.04,402.44 C288.34,403.74 288.26,407.00 286.93,407.00 C285.85,407.00 286.21,414.91 287.38,416.80 ZM 101.27 416.97 C109.73,418.16 113.75,416.73 113.12,412.75 C113.05,412.34 135.69,412.00 163.43,412.00 C213.00,412.00 213.88,412.03 214.50,414.00 C215.49,417.12 218.54,418.31 222.35,417.05 C225.32,416.07 225.59,415.64 225.44,412.11 C225.34,409.99 224.96,407.74 224.58,407.12 C224.19,406.51 224.35,406.00 224.93,406.00 C226.62,406.00 225.66,401.62 223.64,400.12 C220.68,397.92 216.16,397.92 215.46,400.12 C214.89,401.93 212.85,402.00 163.43,402.00 C113.54,402.00 111.94,401.94 110.02,400.02 C108.54,398.54 107.48,398.26 105.77,398.90 C104.52,399.36 102.50,399.37 101.28,398.91 C99.21,398.13 96.12,399.81 95.94,401.82 C95.55,406.06 95.82,415.15 96.35,415.68 C96.73,416.06 98.94,416.64 101.27,416.97 ZM 166.82 320.92 C171.44,323.50 181.40,317.22 177.00,314.50 C175.83,313.77 175.64,309.00 176.78,309.00 C178.03,309.00 178.08,304.17 176.85,303.40 C175.55,302.60 103.17,302.78 101.86,303.58 C101.39,303.88 101.00,303.70 101.00,303.19 C101.00,302.03 96.73,302.19 95.86,303.38 C95.50,303.87 95.17,307.33 95.11,311.08 C94.98,319.77 96.22,320.86 105.79,320.48 C122.04,319.82 165.42,320.14 166.82,320.92 ZM 168.25 361.32 C169.87,361.95 174.02,361.56 176.25,360.56 C178.13,359.73 178.65,355.52 177.00,354.50 C175.76,353.74 175.72,349.00 176.92,347.09 C177.47,346.22 177.38,344.99 176.70,343.88 C175.79,342.44 174.69,342.19 171.04,342.62 C168.54,342.91 166.35,343.56 166.17,344.07 C165.97,344.61 155.00,345.00 140.04,345.00 C119.48,345.00 113.52,344.70 110.69,343.51 C107.18,342.05 98.53,341.93 96.28,343.33 C94.67,344.32 94.74,357.54 96.36,358.89 C97.06,359.47 100.12,360.23 103.16,360.59 C107.73,361.13 108.80,360.96 109.32,359.62 C109.87,358.18 113.09,358.00 138.47,358.00 C162.42,358.00 167.00,358.23 167.00,359.42 C167.00,360.20 167.56,361.05 168.25,361.32 ZM 110.78 281.45 C111.09,281.76 112.07,281.34 112.96,280.53 C114.30,279.32 119.25,279.05 140.93,278.97 C158.33,278.90 167.63,279.23 168.34,279.94 C169.54,281.14 174.97,281.34 176.53,280.23 C177.65,279.44 177.75,277.39 176.77,275.00 C175.39,271.62 175.33,268.09 176.65,267.58 C179.97,266.31 177.11,262.85 172.57,262.63 C169.00,262.47 165.00,264.79 165.00,267.04 C165.00,267.63 155.47,268.00 140.41,268.00 C116.72,268.00 115.76,267.92 114.14,265.92 C112.83,264.30 111.19,263.81 106.74,263.67 C103.59,263.58 101.01,263.19 101.01,262.81 C101.00,262.04 97.06,262.61 96.17,263.50 C95.07,264.60 95.19,270.50 96.33,271.23 C97.20,271.78 97.18,271.97 96.25,271.98 C94.58,272.01 94.71,276.04 96.46,278.34 C97.48,279.68 99.50,280.27 104.04,280.53 C107.44,280.73 110.48,281.15 110.78,281.45 ZM 198.32 88.75 C196.90,90.26 196.00,90.35 196.00,89.00 C196.00,88.45 195.13,88.00 194.06,88.00 C192.99,88.00 191.85,87.57 191.52,87.04 C191.16,86.45 190.02,86.42 188.57,86.97 C187.27,87.47 185.95,87.62 185.64,87.31 C185.33,87.00 183.24,86.64 181.00,86.50 C177.43,86.28 173.82,85.00 176.78,85.00 C177.59,85.00 177.60,84.16 176.82,81.92 L 175.75 78.83 L 168.95 79.19 C162.58,79.52 162.12,79.40 161.72,77.32 C161.49,76.10 161.77,74.63 162.35,74.05 C162.98,73.42 168.89,73.00 177.21,73.00 L 191.02 73.00 L 190.59 76.49 C190.12,80.28 191.05,81.36 195.00,81.57 C199.95,81.82 200.15,81.95 199.82,84.75 C199.64,86.26 198.97,88.06 198.32,88.75 Z" fill="rgb(0,0,0)"/>
<path d="M 201.04 321.02 C198.95,319.73 197.47,305.59 199.19,303.36 C200.40,301.78 207.96,302.33 209.07,304.08 C209.73,305.12 209.97,305.16 209.98,304.22 C210.00,303.19 229.41,303.00 310.50,303.22 C365.78,303.37 411.00,303.20 411.00,302.84 C411.00,302.47 411.79,302.33 412.75,302.51 C413.71,302.70 414.79,302.88 415.14,302.92 C416.21,303.05 416.63,311.00 415.58,311.00 C415.04,311.00 415.14,311.54 415.80,312.20 C418.83,315.23 415.82,319.90 410.34,320.67 C408.23,320.97 406.05,321.09 405.50,320.95 C404.95,320.81 360.74,320.53 307.25,320.33 C235.32,320.07 210.00,319.67 210.00,318.83 C210.00,318.17 209.21,318.40 208.14,319.38 C205.90,321.40 202.81,322.12 201.04,321.02 ZM 200.42 360.62 C198.77,359.66 198.51,358.39 198.60,351.65 C198.66,346.51 199.12,343.54 199.95,343.03 C201.48,342.08 208.13,342.83 209.45,344.09 C210.93,345.50 397.32,345.28 398.73,343.87 C399.89,342.71 413.35,341.98 414.99,342.99 C415.49,343.30 416.21,346.55 416.58,350.22 C417.38,357.97 416.62,359.25 410.47,360.51 C405.63,361.51 403.75,361.24 402.70,359.40 C402.02,358.21 387.33,358.00 306.11,358.00 C213.71,358.00 210.25,358.07 208.61,359.88 C206.70,361.99 203.28,362.30 200.42,360.62 ZM 99.00 225.26 C96.63,224.37 95.99,222.67 97.42,221.02 C99.34,218.79 97.35,196.54 94.75,191.23 C93.84,189.37 94.01,188.47 95.71,186.23 C96.99,184.55 98.59,183.59 99.88,183.74 C102.53,184.03 103.36,181.07 102.72,173.53 C102.22,167.58 102.83,166.54 106.87,166.51 C108.68,166.50 109.50,165.69 110.37,163.00 C111.13,160.65 112.16,159.45 113.50,159.36 C114.60,159.28 116.03,159.16 116.67,159.11 C117.32,159.05 118.34,157.49 118.95,155.65 C120.16,151.97 123.13,150.19 127.00,150.79 C132.51,151.66 139.00,151.61 139.00,150.71 C139.00,150.19 139.76,150.37 140.69,151.13 C141.84,152.06 142.14,152.10 141.63,151.25 C140.46,149.30 142.76,149.78 144.00,151.75 C144.92,153.20 145.05,152.97 144.74,150.35 C144.46,147.88 144.71,147.30 145.94,147.63 C146.80,147.87 146.49,147.53 145.25,146.88 C144.01,146.23 143.00,145.36 143.00,144.96 C143.00,144.55 141.48,143.94 139.63,143.59 C136.33,142.97 136.24,142.82 135.55,136.74 C134.69,129.15 133.75,127.76 130.34,129.06 C128.96,129.59 127.46,129.78 126.99,129.50 C126.53,129.21 124.72,128.81 122.96,128.61 C119.56,128.21 117.70,126.36 118.51,124.17 C118.78,123.44 119.00,120.40 119.00,117.42 C119.00,113.33 119.49,111.51 121.00,110.00 C123.39,107.61 123.57,106.57 121.45,107.38 C120.59,107.71 120.15,107.57 120.45,107.07 C120.76,106.58 120.59,106.02 120.07,105.84 C119.55,105.65 118.92,102.03 118.67,97.79 C118.05,87.34 118.80,86.40 127.42,86.84 C132.91,87.13 134.00,86.92 134.00,85.59 C134.00,84.72 134.45,84.00 135.00,84.00 C136.26,84.00 136.30,80.43 135.07,78.13 C134.56,77.17 134.49,75.82 134.92,75.13 C135.35,74.43 135.38,72.10 134.99,69.95 C134.02,64.62 135.99,61.67 139.62,63.04 C141.02,63.58 142.65,63.72 143.23,63.36 C143.81,63.00 145.69,62.63 147.40,62.55 C150.00,62.42 150.46,62.03 150.25,60.12 C150.11,58.87 150.56,57.09 151.25,56.17 C152.35,54.69 153.43,54.61 160.34,55.50 C164.65,56.05 167.84,56.84 167.42,57.25 C167.01,57.66 167.18,58.00 167.80,58.00 C168.43,58.00 168.68,58.67 168.36,59.50 C167.88,60.75 169.03,61.00 175.33,61.00 C181.99,61.00 182.94,60.77 183.50,59.00 C184.35,56.32 187.77,56.45 190.29,59.25 C191.74,60.87 192.14,61.02 191.70,59.78 C190.58,56.65 193.37,55.29 200.67,55.40 C205.56,55.47 207.43,55.86 207.25,56.75 C207.11,57.44 207.38,58.00 207.84,58.00 C208.30,58.00 209.19,59.12 209.82,60.50 C210.45,61.89 211.80,63.00 212.86,63.00 C215.15,63.00 216.50,64.57 217.38,68.25 C217.81,70.03 218.73,71.04 220.02,71.12 C221.11,71.19 222.56,71.31 223.25,71.38 C224.13,71.46 224.48,73.64 224.42,78.75 C224.35,84.67 224.62,86.03 225.92,86.15 C229.03,86.45 229.52,86.59 231.38,87.65 C232.79,88.46 233.30,89.96 233.38,93.60 C233.49,97.90 233.83,98.63 236.29,99.81 C238.38,100.81 238.93,101.64 238.48,103.08 C238.14,104.13 238.29,105.00 238.82,105.00 C239.34,105.00 239.97,106.08 240.23,107.41 C240.82,110.50 238.16,112.85 234.54,112.45 C232.14,112.19 231.89,112.42 232.51,114.33 C233.39,117.08 233.46,121.78 232.66,124.95 C231.70,128.76 227.25,130.74 223.80,128.90 C222.80,128.36 222.07,128.27 222.18,128.71 C222.71,130.65 220.70,134.00 219.01,134.00 C217.44,134.00 217.19,134.70 217.40,138.53 C217.66,143.53 216.42,145.25 212.55,145.25 C209.69,145.25 206.32,148.11 206.02,150.68 C206.00,150.19 206.00,149.60 206.00,148.88 C206.00,145.69 206.71,143.96 209.15,141.18 C210.88,139.21 213.40,135.19 214.74,132.25 C216.73,127.90 217.91,126.62 221.08,125.35 C235.80,119.46 236.74,98.55 222.60,91.31 C218.99,89.46 218.04,88.26 218.01,85.50 C217.93,77.57 210.13,67.28 201.24,63.34 C196.31,61.16 194.66,61.00 177.72,61.01 C160.29,61.02 159.26,61.13 154.00,63.58 C144.93,67.79 140.86,72.83 137.96,83.42 C136.49,88.79 135.82,89.77 132.06,91.99 C123.92,96.81 120.64,107.23 124.63,115.63 C126.54,119.67 133.58,126.00 136.15,126.00 C137.35,126.00 138.96,128.06 141.03,132.25 C142.73,135.69 145.48,139.90 147.13,141.62 C149.61,144.18 150.08,145.42 149.82,148.62 L 149.50 152.50 L 143.50 153.18 C127.53,155.00 114.55,164.29 107.66,178.82 C104.54,185.42 104.50,185.71 104.17,203.25 L 103.84 221.00 L 106.17 221.94 C107.53,222.48 137.58,222.90 178.42,222.94 C242.14,222.99 248.50,222.85 250.17,221.35 C251.77,219.90 252.00,218.00 252.00,206.39 C252.00,186.30 249.26,176.93 240.56,167.31 C233.01,158.94 220.22,153.00 209.79,153.00 C207.80,153.00 206.85,152.99 206.40,152.39 C206.89,152.86 207.88,153.00 209.79,153.00 L 209.80 153.00 C211.89,153.00 214.09,152.51 214.69,151.91 C216.26,150.34 227.00,150.34 230.81,151.92 C233.23,152.93 233.91,153.72 233.48,155.07 C232.72,157.45 235.67,159.00 240.93,159.00 C246.50,159.00 249.00,161.61 249.00,167.43 C249.00,171.92 251.13,175.47 253.37,174.70 C255.33,174.03 257.76,177.79 257.27,180.75 C257.03,182.26 256.83,186.30 256.85,189.73 C256.86,193.16 256.45,196.22 255.94,196.54 C255.42,196.86 255.00,198.02 255.00,199.12 C255.00,200.22 254.55,200.84 254.00,200.50 C253.36,200.11 253.06,202.53 253.17,207.19 L 253.34 214.50 L 254.66 202.50 L 254.83 208.17 C254.92,211.28 255.41,213.98 255.91,214.17 C256.82,214.50 257.32,217.62 257.11,221.71 C256.94,225.12 253.86,226.26 249.62,224.49 C246.59,223.22 236.10,223.00 179.10,223.00 C133.18,223.00 111.25,223.34 109.32,224.09 C105.80,225.45 100.98,226.00 99.00,225.26 ZM 199.02 279.54 C197.56,276.82 198.41,266.34 200.34,263.25 C202.25,260.19 210.00,262.86 210.00,266.57 C210.00,267.80 223.35,268.00 305.11,268.00 C387.74,268.00 400.14,267.81 399.66,266.55 C399.32,265.67 399.87,264.86 401.05,264.48 C402.12,264.14 403.00,263.53 403.00,263.13 C403.00,262.25 408.39,262.50 409.93,263.45 C410.52,263.82 411.00,263.67 411.00,263.12 C411.00,262.19 414.72,262.39 415.70,263.37 C415.94,263.60 416.31,266.70 416.53,270.25 C417.02,278.06 415.85,280.07 410.46,280.67 C408.32,280.90 406.40,281.26 406.19,281.47 C405.99,281.68 403.72,281.21 401.16,280.44 C397.29,279.26 380.69,279.02 302.95,279.01 C244.44,279.00 209.04,279.36 208.44,279.96 C207.91,280.49 205.85,281.12 203.86,281.37 C200.87,281.74 200.03,281.43 199.02,279.54 ZM 263.29 151.75 C262.76,151.06 262.28,147.46 262.23,143.73 C262.13,137.59 262.34,136.82 264.59,135.35 C266.86,133.86 267.19,133.86 268.85,135.37 C270.48,136.84 277.09,137.00 337.47,137.00 C399.54,137.00 404.37,136.88 405.54,135.28 C406.59,133.85 407.20,133.75 409.15,134.73 C410.44,135.37 412.38,136.03 413.46,136.20 C417.70,136.87 416.83,146.36 412.57,145.78 C411.43,145.63 410.23,145.14 409.90,144.69 C409.58,144.24 409.27,145.36 409.21,147.16 C409.16,148.96 408.38,150.98 407.47,151.64 C405.72,152.92 398.75,152.32 398.17,150.84 C397.98,150.38 370.08,150.01 336.17,150.03 C283.53,150.06 274.22,150.28 272.56,151.53 C270.19,153.33 264.60,153.46 263.29,151.75 ZM 287.35 456.20 C285.31,454.16 285.68,448.32 288.00,446.00 C289.42,444.58 289.60,444.00 288.61,444.00 C286.88,444.00 285.92,441.74 286.95,440.08 C287.55,439.11 301.45,438.85 350.00,438.89 C352.61,438.89 355.12,438.90 357.54,438.90 C406.68,438.93 414.88,438.94 416.59,442.27 C417.01,443.10 417.03,444.14 417.18,445.43 C417.41,447.38 417.16,449.11 416.63,449.29 C416.03,449.49 416.09,450.81 416.77,452.78 C418.05,456.43 417.45,457.05 412.84,456.91 C411.00,456.85 407.38,457.02 404.80,457.28 C401.06,457.66 399.74,457.37 398.39,455.88 C396.77,454.09 394.37,454.00 347.48,454.00 C300.21,454.00 298.17,454.08 295.79,455.95 C293.02,458.13 289.38,458.24 287.35,456.20 ZM 104.60 457.27 C104.30,456.96 102.12,456.62 99.77,456.51 L 95.50 456.30 L 95.45 450.90 C95.37,442.46 96.12,440.67 100.06,439.79 C102.46,439.25 202.51,438.60 223.14,438.99 C224.26,439.01 225.14,442.31 225.63,448.38 C226.01,453.17 225.77,454.56 224.30,455.89 C222.00,457.98 217.65,457.89 215.23,455.70 C213.51,454.15 209.11,454.00 164.50,454.00 C119.65,454.00 115.50,454.14 113.75,455.73 C111.92,457.38 105.76,458.42 104.60,457.27 ZM 204.00 356.00 C205.97,357.97 207.33,358.00 305.28,358.00 C393.51,358.00 404.80,357.83 406.78,356.44 C409.20,354.75 409.71,351.11 407.80,349.20 C406.88,348.28 382.76,348.00 305.34,348.00 C206.24,348.00 204.05,348.04 203.04,349.93 C201.56,352.68 201.73,353.73 204.00,356.00 ZM 204.00 316.00 C205.97,317.97 207.33,318.00 305.28,318.00 C393.51,318.00 404.80,317.83 406.78,316.44 C409.20,314.75 409.71,311.11 407.80,309.20 C406.06,307.46 204.94,307.46 203.20,309.20 C201.42,310.98 201.74,313.74 204.00,316.00 ZM 205.23 276.77 C208.74,278.46 402.64,278.40 406.00,276.71 C408.83,275.29 410.01,270.25 407.83,268.87 C407.10,268.41 360.99,268.02 305.37,268.02 C217.08,268.00 204.09,268.19 203.01,269.49 C201.30,271.54 202.49,275.45 205.23,276.77 ZM 240.25 206.61 C240.76,206.22 241.17,205.32 241.48,204.16 L 241.50 212.50 L 114.00 213.01 L 114.00 201.54 C114.00,186.86 116.02,180.85 123.40,173.48 C130.23,166.68 136.43,163.80 145.55,163.22 C152.19,162.79 153.09,162.97 156.19,165.33 C158.06,166.76 162.27,169.15 165.54,170.66 C176.32,175.61 189.22,173.62 198.79,165.53 C201.91,162.90 202.51,162.77 209.82,163.20 C216.14,163.56 218.69,164.25 223.81,166.98 C231.17,170.90 235.33,175.32 238.86,182.95 C240.63,186.78 241.20,188.75 241.38,194.36 C241.21,194.07 241.00,193.89 240.75,193.87 C240.06,193.79 238.13,193.65 236.46,193.56 C231.28,193.25 230.80,192.45 231.16,184.66 L 231.49 177.54 L 228.59 177.32 C223.64,176.94 222.74,176.22 223.21,173.04 C223.44,171.43 223.27,170.33 222.82,170.61 C222.37,170.89 222.00,170.70 222.00,170.19 C222.00,169.68 220.17,169.34 217.94,169.43 C215.70,169.53 213.67,169.28 213.43,168.88 C213.18,168.48 211.29,168.37 209.24,168.64 C207.18,168.90 204.71,169.12 203.75,169.12 C202.01,169.12 200.06,171.62 200.35,173.48 C200.43,174.01 199.15,174.85 197.50,175.34 C195.85,175.83 193.82,176.57 192.99,176.98 C192.16,177.39 190.58,177.39 189.49,176.99 C188.39,176.59 181.43,176.38 174.00,176.53 C166.57,176.67 160.00,176.39 159.39,175.89 C158.78,175.39 158.39,173.95 158.53,172.69 C158.75,170.69 158.11,170.25 153.41,169.16 C149.92,168.34 147.42,168.24 146.27,168.85 C145.30,169.37 143.20,169.64 141.61,169.47 C138.43,169.11 136.64,170.40 135.55,173.84 C135.10,175.26 133.76,176.30 131.90,176.67 C130.28,176.99 128.71,177.66 128.41,178.15 C128.11,178.63 127.44,178.77 126.93,178.46 C126.10,177.95 125.59,179.26 125.86,181.19 C125.92,181.57 125.06,181.70 123.95,181.49 C122.85,181.28 122.19,181.50 122.49,181.98 C122.79,182.47 122.58,183.14 122.02,183.49 C121.46,183.84 121.00,186.31 121.00,188.99 C121.00,191.84 120.42,194.44 119.59,195.27 C118.72,196.14 118.50,197.20 119.03,198.04 C119.49,198.79 119.62,200.66 119.31,202.20 C119.26,202.43 119.22,202.64 119.17,202.85 C118.96,203.83 118.79,204.63 119.03,205.27 C120.04,208.01 128.48,208.00 172.93,207.97 C175.15,207.97 177.47,207.97 179.87,207.97 C227.04,207.94 238.84,207.68 240.25,206.61 ZM 101.27 416.97 C98.94,416.64 96.73,416.06 96.35,415.68 C95.82,415.15 95.55,406.06 95.94,401.82 C96.12,399.81 99.21,398.13 101.28,398.91 C102.50,399.37 104.52,399.36 105.77,398.90 C107.48,398.26 108.54,398.54 110.02,400.02 C111.94,401.94 113.54,402.00 163.43,402.00 C212.85,402.00 214.89,401.93 215.46,400.12 C216.16,397.92 220.68,397.92 223.64,400.12 C225.66,401.62 226.62,406.00 224.93,406.00 C224.35,406.00 224.19,406.51 224.58,407.12 C224.96,407.74 225.34,409.99 225.44,412.11 C225.59,415.64 225.32,416.07 222.35,417.05 C218.54,418.31 215.49,417.12 214.50,414.00 C213.88,412.03 213.00,412.00 163.43,412.00 C135.69,412.00 113.05,412.34 113.12,412.75 C113.75,416.73 109.73,418.16 101.27,416.97 ZM 421.55 474.08 C421.24,473.57 421.66,472.48 422.49,471.65 C423.83,470.32 424.00,445.60 424.00,256.00 C424.00,66.40 423.83,41.68 422.49,40.35 C421.66,39.52 421.24,38.43 421.55,37.92 C421.89,37.36 357.03,37.00 256.50,37.00 L 427.00 37.00 L 427.00 475.00 L 256.50 475.00 C357.03,475.00 421.89,474.64 421.55,474.08 ZM 166.82 320.92 C165.42,320.14 122.04,319.82 105.79,320.48 C96.22,320.86 94.98,319.77 95.11,311.08 C95.17,307.33 95.50,303.87 95.86,303.38 C96.73,302.19 101.00,302.03 101.00,303.19 C101.00,303.70 101.39,303.88 101.86,303.58 C103.17,302.78 175.55,302.60 176.85,303.40 C178.08,304.17 178.03,309.00 176.78,309.00 C175.64,309.00 175.83,313.77 177.00,314.50 C181.40,317.22 171.44,323.50 166.82,320.92 ZM 268.00 145.00 C269.96,146.96 271.33,147.00 337.67,147.00 C399.24,147.00 405.51,146.85 407.17,145.35 C409.26,143.45 409.57,139.97 407.80,138.20 C406.89,137.29 389.87,137.00 337.34,137.00 C269.88,137.00 268.04,137.05 267.04,138.93 C265.56,141.68 265.73,142.73 268.00,145.00 ZM 168.25 361.32 C167.56,361.05 167.00,360.20 167.00,359.42 C167.00,358.23 162.42,358.00 138.47,358.00 C113.09,358.00 109.87,358.18 109.32,359.62 C108.80,360.96 107.73,361.13 103.16,360.59 C100.12,360.23 97.06,359.47 96.36,358.89 C94.74,357.54 94.67,344.32 96.28,343.33 C98.53,341.93 107.18,342.05 110.69,343.51 C113.52,344.70 119.48,345.00 140.04,345.00 C155.00,345.00 165.97,344.61 166.17,344.07 C166.35,343.56 168.54,342.91 171.04,342.62 C174.69,342.19 175.79,342.44 176.70,343.88 C177.38,344.99 177.47,346.22 176.92,347.09 C175.72,349.00 175.76,353.74 177.00,354.50 C178.65,355.52 178.13,359.73 176.25,360.56 C174.02,361.56 169.87,361.95 168.25,361.32 ZM 105.17 450.77 C106.03,451.63 121.18,451.95 163.08,451.98 C213.61,452.03 220.00,451.86 221.41,450.44 C223.60,448.26 223.41,444.29 221.07,443.04 C218.40,441.61 108.60,441.61 105.93,443.04 C103.76,444.20 103.29,448.89 105.17,450.77 ZM 105.75 410.90 C106.86,411.54 128.10,411.93 163.66,411.97 C213.66,412.02 220.00,411.85 221.41,410.44 C223.60,408.26 223.41,404.29 221.07,403.04 C219.80,402.36 199.94,402.00 163.50,402.00 C127.06,402.00 107.20,402.36 105.93,403.04 C103.44,404.37 103.32,409.51 105.75,410.90 ZM 291.75 450.92 C294.18,452.33 404.43,452.38 407.07,450.96 C408.30,450.30 409.00,448.87 409.00,447.00 C409.00,445.13 408.30,443.70 407.07,443.04 C405.80,442.36 385.94,442.00 349.50,442.00 C313.06,442.00 293.20,442.36 291.93,443.04 C289.45,444.37 289.33,449.51 291.75,450.92 ZM 110.78 281.45 C110.48,281.15 107.44,280.73 104.04,280.53 C99.50,280.27 97.48,279.68 96.46,278.34 C94.71,276.04 94.58,272.01 96.25,271.98 C97.18,271.97 97.20,271.78 96.33,271.23 C95.19,270.50 95.07,264.60 96.17,263.50 C97.06,262.61 101.00,262.04 101.01,262.81 C101.01,263.19 103.59,263.58 106.74,263.67 C111.19,263.81 112.83,264.30 114.14,265.92 C115.76,267.92 116.72,268.00 140.41,268.00 C155.47,268.00 165.00,267.63 165.00,267.04 C165.00,264.79 169.00,262.47 172.57,262.63 C177.11,262.85 179.97,266.31 176.65,267.58 C175.33,268.09 175.39,271.62 176.77,275.00 C177.75,277.39 177.65,279.44 176.53,280.23 C174.97,281.34 169.54,281.14 168.34,279.94 C167.63,279.23 158.33,278.90 140.93,278.97 C119.25,279.05 114.30,279.32 112.96,280.53 C112.07,281.34 111.09,281.76 110.78,281.45 ZM 206.25 91.48 C204.06,92.35 186.21,93.08 183.50,92.41 C182.40,92.14 178.12,90.70 174.00,89.21 C167.89,87.00 164.79,86.50 157.25,86.50 C147.00,86.50 146.80,86.33 149.68,80.27 C150.65,78.21 153.25,75.53 155.87,73.87 L 160.39 71.00 L 177.75 71.00 C196.53,71.00 198.24,71.38 203.13,76.66 C206.77,80.59 208.00,83.29 208.00,87.33 C208.00,89.69 207.45,91.01 206.25,91.48 ZM 86.00 37.00 L 88.01 37.00 L 88.01 475.00 L 86.00 475.00 ZM 267.81 192.93 C266.34,192.53 264.93,192.40 264.70,192.64 C264.46,192.87 263.73,191.76 263.07,190.17 C261.54,186.47 262.30,177.27 264.30,175.28 C265.67,173.90 265.95,173.94 267.00,175.62 C267.62,176.62 268.64,177.09 280.39,177.26 C270.57,177.48 268.27,177.87 267.57,178.57 C265.46,180.68 265.59,182.59 268.00,185.00 C269.96,186.96 271.33,187.00 337.67,187.00 C399.24,187.00 405.51,186.85 407.17,185.35 C409.26,183.45 409.57,179.97 407.80,178.20 C407.08,177.48 396.21,177.14 365.50,177.04 C388.50,176.81 404.00,176.45 404.00,176.09 C404.00,174.33 407.02,174.13 411.37,175.61 C414.59,176.71 415.98,177.79 416.42,179.55 C417.21,182.68 415.12,186.00 412.36,186.00 C410.85,186.00 409.88,186.91 409.15,189.00 C408.57,190.65 407.74,192.05 407.30,192.11 C402.64,192.78 401.00,192.74 401.00,191.97 C401.00,191.43 375.02,191.04 337.50,191.01 C300.65,190.99 274.00,191.35 274.00,191.87 C274.00,193.21 270.85,193.76 267.81,192.93 ZM 180.52 143.25 C181.85,141.74 182.95,139.49 182.97,138.25 C183.00,135.88 183.05,135.85 187.00,135.41 C194.99,134.51 197.18,134.15 197.68,133.65 C197.99,133.35 198.43,129.18 198.67,124.40 C199.14,114.83 200.14,112.64 204.23,112.21 C206.46,111.98 206.86,112.26 206.39,113.71 C205.90,115.21 205.99,115.26 206.89,114.00 C207.48,113.18 207.98,110.81 207.98,108.75 C208.00,104.74 207.79,104.62 201.25,104.98 C199.46,105.07 198.00,104.67 198.00,104.08 C198.00,103.42 195.48,103.00 191.50,103.00 C187.93,103.00 185.00,103.40 185.00,103.88 C185.00,105.42 181.02,105.88 179.64,104.50 C178.84,103.70 177.79,103.51 176.96,104.02 C176.21,104.49 175.24,104.65 174.80,104.38 C174.36,104.10 174.00,104.25 174.00,104.69 C174.00,105.66 159.48,104.81 158.45,103.78 C158.05,103.39 157.68,102.14 157.61,101.02 C157.46,98.34 155.77,98.20 154.46,100.76 C153.89,101.87 152.83,103.51 152.10,104.38 C151.23,105.43 151.00,107.11 151.44,109.24 C151.81,111.03 152.13,115.29 152.14,118.69 C152.16,125.27 153.51,127.62 156.77,126.77 C159.02,126.18 161.44,128.69 161.70,131.88 C161.92,134.54 163.62,136.08 165.53,135.35 C167.18,134.72 170.00,137.70 170.00,140.07 C170.00,141.45 170.70,142.00 172.43,142.00 C173.99,142.00 175.09,142.72 175.50,144.00 C175.74,144.75 176.01,145.27 176.33,145.57 C168.63,145.16 161.21,141.96 155.86,136.33 C149.15,129.28 147.69,125.03 147.19,111.17 C146.92,103.45 147.14,98.46 147.78,97.82 C148.35,97.25 151.68,96.55 155.18,96.27 C160.59,95.84 162.88,96.24 170.52,98.96 C180.65,102.57 192.64,103.81 202.25,102.24 L 208.00 101.30 L 208.00 111.47 C208.00,118.14 207.45,123.25 206.41,126.30 C204.39,132.23 196.89,140.28 190.92,142.92 C186.75,144.76 182.31,145.64 177.92,145.62 C178.61,145.25 179.45,144.46 180.52,143.25 ZM 106.22 356.44 C108.12,357.77 113.10,358.00 140.39,358.00 C168.72,358.00 172.55,357.81 174.17,356.35 C176.43,354.30 176.59,349.44 174.42,348.61 C173.55,348.27 157.89,348.00 139.62,348.00 C115.12,348.00 106.09,348.31 105.20,349.20 C103.29,351.11 103.80,354.75 106.22,356.44 ZM 106.22 276.44 C108.12,277.77 113.06,278.00 140.00,278.00 C175.41,278.00 176.41,277.82 175.81,271.65 L 175.50 268.50 L 142.00 268.22 C123.57,268.07 107.49,268.19 106.25,268.49 C103.15,269.25 103.13,274.28 106.22,276.44 ZM 106.22 316.44 C108.12,317.77 113.06,318.00 140.00,318.00 C175.41,318.00 176.41,317.82 175.81,311.65 L 175.50 308.50 L 141.12 308.24 C116.58,308.05 106.35,308.30 105.37,309.11 C103.28,310.84 103.73,314.70 106.22,316.44 ZM 287.38 416.80 C286.21,414.91 285.85,407.00 286.93,407.00 C288.26,407.00 288.34,403.74 287.04,402.44 C285.36,400.76 287.63,398.78 291.79,398.30 C295.21,397.91 295.91,398.15 296.47,399.92 C297.01,401.61 297.24,401.93 325.28,401.99 C306.55,402.14 291.86,402.54 291.20,403.20 C289.40,405.00 289.74,409.75 291.75,410.92 C292.88,411.58 313.30,411.95 349.42,411.97 C400.08,412.00 405.51,411.84 407.17,410.35 C409.48,408.25 409.52,405.11 407.25,403.39 C406.26,402.64 387.24,402.17 364.87,401.99 C395.78,401.93 400.93,401.63 401.36,400.50 C401.77,399.44 403.43,399.00 407.03,399.00 C412.63,399.00 416.42,400.47 415.69,402.37 C415.43,403.04 415.79,404.36 416.48,405.30 C417.34,406.48 417.49,408.34 416.95,411.26 C415.99,416.51 416.13,416.35 412.50,416.59 C410.85,416.70 407.99,417.03 406.16,417.33 C402.73,417.89 397.89,416.65 398.11,415.27 C398.64,412.01 398.48,412.00 348.24,412.00 L 298.49 412.00 L 297.27 414.75 C296.25,417.05 295.40,417.52 292.01,417.63 C289.79,417.71 287.71,417.33 287.38,416.80 ZM 198.32 88.75 C198.97,88.06 199.64,86.26 199.82,84.75 C200.15,81.95 199.95,81.82 195.00,81.57 C191.05,81.36 190.12,80.28 190.59,76.49 L 191.02 73.00 L 177.21 73.00 C168.89,73.00 162.98,73.42 162.35,74.05 C161.77,74.63 161.49,76.10 161.72,77.32 C162.12,79.40 162.58,79.52 168.95,79.19 L 175.75 78.83 L 176.82 81.92 C177.60,84.16 177.59,85.00 176.78,85.00 C173.82,85.00 177.43,86.28 181.00,86.50 C183.24,86.64 185.33,87.00 185.64,87.31 C185.95,87.62 187.27,87.47 188.57,86.97 C190.02,86.42 191.16,86.45 191.52,87.04 C191.85,87.57 192.99,88.00 194.06,88.00 C195.13,88.00 196.00,88.45 196.00,89.00 C196.00,90.35 196.90,90.26 198.32,88.75 ZM 263.10 111.08 C261.81,107.79 261.81,98.22 263.09,95.83 C264.27,93.63 268.56,93.40 269.36,95.50 C269.87,96.81 278.41,97.00 337.86,97.00 C397.19,97.00 405.86,96.81 406.36,95.51 C406.83,94.29 407.40,94.22 409.47,95.17 C410.86,95.80 412.00,96.73 412.00,97.22 C412.00,97.71 412.36,97.90 412.80,97.62 C414.29,96.70 416.08,98.66 416.29,101.44 C416.52,104.42 413.57,107.36 412.22,105.50 C410.72,103.42 409.30,104.21 409.21,107.19 C409.10,111.17 407.86,112.33 403.83,112.21 C400.62,112.12 397.54,109.56 398.59,107.85 C398.88,107.39 371.34,107.00 337.28,107.00 C396.55,107.00 404.82,106.81 406.78,105.44 C409.20,103.75 409.71,100.11 407.80,98.20 C406.89,97.29 389.87,97.00 337.34,97.00 C269.88,97.00 268.04,97.05 267.04,98.93 C265.56,101.68 265.73,102.73 268.00,105.00 C269.95,106.95 271.32,107.00 336.67,107.00 L 274.22 107.00 L 273.62 109.37 C273.03,111.74 269.13,113.92 265.80,113.75 C264.87,113.70 263.65,112.50 263.10,111.08 ZM 182.50 162.90 L 182.45 162.92 C180.18,163.53 178.94,163.87 177.71,163.86 C176.23,163.84 174.75,163.33 171.48,162.20 C164.85,159.91 160.00,156.37 160.00,153.82 C160.00,152.28 160.42,151.96 161.75,152.50 C169.73,155.76 183.54,156.28 190.88,153.60 C191.13,153.51 191.38,153.42 191.61,153.33 C194.40,152.31 195.42,151.93 195.79,152.27 C196.01,152.47 196.01,152.90 196.00,153.58 C196.00,153.68 196.00,153.79 196.00,153.90 C196.00,156.18 188.27,161.34 182.50,162.90 ZM 137.00 108.11 C137.00,112.38 136.62,116.12 136.15,116.41 C134.88,117.19 131.25,112.92 130.46,109.73 C129.65,106.47 131.52,101.33 134.01,100.00 C136.62,98.60 137.00,99.64 137.00,108.11 ZM 222.93 114.37 C221.79,115.81 220.44,117.00 219.93,117.00 C219.42,117.00 219.00,112.93 219.00,107.96 C219.00,99.27 219.08,98.97 220.98,99.99 C225.40,102.35 226.42,109.92 222.93,114.37 Z" fill="rgb(1,1,1)"/>
<path d="M 0.00 256.00 L 0.00 0.00 L 256.00 0.00 L 512.00 0.00 L 512.00 256.00 L 512.00 512.00 L 256.00 512.00 L 0.00 512.00 L 0.00 256.00 ZM 427.00 256.00 L 427.00 37.00 L 256.50 37.00 L 86.00 37.00 L 86.00 256.00 L 86.00 475.00 L 256.50 475.00 L 427.00 475.00 L 427.00 256.00 ZM 105.17 450.77 C103.29,448.89 103.76,444.20 105.93,443.04 C108.60,441.61 218.40,441.61 221.07,443.04 C223.41,444.29 223.60,448.26 221.41,450.44 C220.00,451.86 213.61,452.03 163.08,451.98 C121.18,451.95 106.03,451.63 105.17,450.77 ZM 291.75 450.92 C289.33,449.51 289.45,444.37 291.93,443.04 C293.20,442.36 313.06,442.00 349.50,442.00 C385.94,442.00 405.80,442.36 407.07,443.04 C408.30,443.70 409.00,445.13 409.00,447.00 C409.00,448.87 408.30,450.30 407.07,450.96 C404.43,452.38 294.18,452.33 291.75,450.92 ZM 105.75 410.90 C103.32,409.51 103.44,404.37 105.93,403.04 C107.20,402.36 127.06,402.00 163.50,402.00 C199.94,402.00 219.80,402.36 221.07,403.04 C223.41,404.29 223.60,408.26 221.41,410.44 C220.00,411.85 213.66,412.02 163.66,411.97 C128.10,411.93 106.86,411.54 105.75,410.90 ZM 291.75 410.92 C289.74,409.75 289.40,405.00 291.20,403.20 C293.04,401.36 404.82,401.54 407.25,403.39 C409.52,405.11 409.48,408.25 407.17,410.35 C405.51,411.84 400.08,412.00 349.42,411.97 C313.30,411.95 292.88,411.58 291.75,410.92 ZM 106.22 356.44 C103.80,354.75 103.29,351.11 105.20,349.20 C106.09,348.31 115.12,348.00 139.62,348.00 C157.89,348.00 173.55,348.27 174.42,348.61 C176.59,349.44 176.43,354.30 174.17,356.35 C172.55,357.81 168.72,358.00 140.39,358.00 C113.10,358.00 108.12,357.77 106.22,356.44 ZM 204.00 356.00 C201.73,353.73 201.56,352.68 203.04,349.93 C204.05,348.04 206.24,348.00 305.34,348.00 C382.76,348.00 406.88,348.28 407.80,349.20 C409.71,351.11 409.20,354.75 406.78,356.44 C404.80,357.83 393.51,358.00 305.28,358.00 C207.33,358.00 205.97,357.97 204.00,356.00 ZM 106.22 316.44 C103.73,314.70 103.28,310.84 105.37,309.11 C106.35,308.30 116.58,308.05 141.12,308.24 L 175.50 308.50 L 175.81 311.65 C176.41,317.82 175.41,318.00 140.00,318.00 C113.06,318.00 108.12,317.77 106.22,316.44 ZM 204.00 316.00 C201.74,313.74 201.42,310.98 203.20,309.20 C204.94,307.46 406.06,307.46 407.80,309.20 C409.71,311.11 409.20,314.75 406.78,316.44 C404.80,317.83 393.51,318.00 305.28,318.00 C207.33,318.00 205.97,317.97 204.00,316.00 ZM 106.22 276.44 C103.13,274.28 103.15,269.25 106.25,268.49 C107.49,268.19 123.57,268.07 142.00,268.22 L 175.50 268.50 L 175.81 271.65 C176.41,277.82 175.41,278.00 140.00,278.00 C113.06,278.00 108.12,277.77 106.22,276.44 ZM 205.23 276.77 C202.49,275.45 201.30,271.54 203.01,269.49 C204.09,268.19 217.08,268.00 305.37,268.02 C360.99,268.02 407.10,268.41 407.83,268.87 C410.01,270.25 408.83,275.29 406.00,276.71 C402.64,278.40 208.74,278.46 205.23,276.77 ZM 106.17 221.94 L 103.84 221.00 L 104.17 203.25 C104.50,185.71 104.54,185.42 107.66,178.82 C114.55,164.29 127.53,155.00 143.50,153.18 L 149.50 152.50 L 149.82 148.62 C150.08,145.42 149.61,144.18 147.13,141.62 C145.48,139.90 142.73,135.69 141.03,132.25 C138.96,128.06 137.35,126.00 136.15,126.00 C133.58,126.00 126.54,119.67 124.63,115.63 C120.64,107.23 123.92,96.81 132.06,91.99 C135.82,89.77 136.49,88.79 137.96,83.42 C140.86,72.83 144.93,67.79 154.00,63.58 C159.26,61.13 160.29,61.02 177.72,61.01 C194.66,61.00 196.31,61.16 201.24,63.34 C210.13,67.28 217.93,77.57 218.01,85.50 C218.04,88.26 218.99,89.46 222.60,91.31 C236.74,98.55 235.80,119.46 221.08,125.35 C217.91,126.62 216.73,127.90 214.74,132.25 C213.40,135.19 210.88,139.21 209.15,141.18 C206.71,143.96 206.00,145.69 206.00,148.88 C206.00,152.98 206.02,153.00 209.79,153.00 C220.22,153.00 233.01,158.94 240.56,167.31 C249.26,176.93 252.00,186.30 252.00,206.39 C252.00,218.00 251.77,219.90 250.17,221.35 C248.50,222.85 242.14,222.99 178.42,222.94 C137.58,222.90 107.53,222.48 106.17,221.94 ZM 241.47 200.50 C241.43,189.77 241.16,187.91 238.86,182.95 C235.33,175.32 231.17,170.90 223.81,166.98 C218.69,164.25 216.14,163.56 209.82,163.20 C202.51,162.77 201.91,162.90 198.79,165.53 C189.22,173.62 176.32,175.61 165.54,170.66 C162.27,169.15 158.06,166.76 156.19,165.33 C153.09,162.97 152.19,162.79 145.55,163.22 C136.43,163.80 130.23,166.68 123.40,173.48 C116.02,180.85 114.00,186.86 114.00,201.54 L 114.00 213.01 L 177.75 212.76 L 241.50 212.50 L 241.47 200.50 ZM 182.50 162.90 C188.27,161.34 196.00,156.18 196.00,153.90 C196.00,151.61 196.27,151.63 190.88,153.60 C183.54,156.28 169.73,155.76 161.75,152.50 C160.42,151.96 160.00,152.28 160.00,153.82 C160.00,156.37 164.85,159.91 171.48,162.20 C177.49,164.28 177.45,164.27 182.50,162.90 ZM 190.92 142.92 C196.89,140.28 204.39,132.23 206.41,126.30 C207.45,123.25 208.00,118.14 208.00,111.47 L 208.00 101.30 L 202.25 102.24 C192.64,103.81 180.65,102.57 170.52,98.96 C162.88,96.24 160.59,95.84 155.18,96.27 C151.68,96.55 148.35,97.25 147.78,97.82 C147.14,98.46 146.92,103.45 147.19,111.17 C147.69,125.03 149.15,129.28 155.86,136.33 C164.61,145.55 178.91,148.23 190.92,142.92 ZM 137.00 108.11 C137.00,99.64 136.62,98.60 134.01,100.00 C131.52,101.33 129.65,106.47 130.46,109.73 C131.25,112.92 134.88,117.19 136.15,116.41 C136.62,116.12 137.00,112.38 137.00,108.11 ZM 222.93 114.37 C226.42,109.92 225.40,102.35 220.98,99.99 C219.08,98.97 219.00,99.27 219.00,107.96 C219.00,112.93 219.42,117.00 219.93,117.00 C220.44,117.00 221.79,115.81 222.93,114.37 ZM 206.25 91.48 C207.45,91.01 208.00,89.69 208.00,87.33 C208.00,83.29 206.77,80.59 203.13,76.66 C198.24,71.38 196.53,71.00 177.75,71.00 L 160.39 71.00 L 155.87 73.87 C153.25,75.53 150.65,78.21 149.68,80.27 C146.80,86.33 147.00,86.50 157.25,86.50 C164.79,86.50 167.89,87.00 174.00,89.21 C178.12,90.70 182.40,92.14 183.50,92.41 C186.21,93.08 204.06,92.35 206.25,91.48 ZM 268.00 185.00 C265.59,182.59 265.46,180.68 267.57,178.57 C268.97,177.17 276.72,177.00 337.87,177.00 C389.99,177.00 406.89,177.29 407.80,178.20 C409.57,179.97 409.26,183.45 407.17,185.35 C405.51,186.85 399.24,187.00 337.67,187.00 C271.33,187.00 269.96,186.96 268.00,185.00 ZM 268.00 145.00 C265.73,142.73 265.56,141.68 267.04,138.93 C268.04,137.05 269.88,137.00 337.34,137.00 C389.87,137.00 406.89,137.29 407.80,138.20 C409.57,139.97 409.26,143.45 407.17,145.35 C405.51,146.85 399.24,147.00 337.67,147.00 C271.33,147.00 269.96,146.96 268.00,145.00 ZM 268.00 105.00 C265.73,102.73 265.56,101.68 267.04,98.93 C268.04,97.05 269.88,97.00 337.34,97.00 C389.87,97.00 406.89,97.29 407.80,98.20 C409.71,100.11 409.20,103.75 406.78,105.44 C404.82,106.81 396.55,107.00 337.28,107.00 C271.33,107.00 269.96,106.96 268.00,105.00 Z" fill="rgb(254,254,254)"/>
</g>
</svg>